# Blender v3.0.0 OBJ File: 'Rhaqim.blend'
# www.blender.org
mtllib Rhaqim.mtl
o Cube.003_Cube.004
v 0.018756 0.485350 0.896352
v 0.018756 0.006220 0.204704
v 0.018756 0.454514 0.917713
v 0.018756 -0.024616 0.226065
v -0.018756 0.485350 0.896352
v -0.018756 0.006220 0.204704
v -0.018756 0.454514 0.917713
v -0.018756 -0.024616 0.226065
v 0.018756 1.277231 -0.018756
v 0.018756 -0.838483 -0.018756
v 0.018756 1.277231 0.018756
v 0.018756 -0.838484 0.018756
v -0.018756 1.277231 -0.018756
v -0.018756 -0.838483 -0.018756
v -0.018756 1.277231 0.018756
v -0.018756 -0.838484 0.018756
v 0.018756 1.329993 0.088466
v 0.018756 0.452520 0.805618
v 0.018756 1.353731 0.117512
v 0.018756 0.476258 0.834663
v -0.018756 1.329993 0.088466
v -0.018756 0.452520 0.805618
v -0.018756 1.353731 0.117512
v -0.018756 0.476258 0.834663
v 0.018756 -0.036348 0.152652
v 0.018756 -0.701528 0.826740
v 0.018756 -0.012609 0.181698
v 0.018756 -0.677790 0.855785
v -0.018756 -0.036348 0.152652
v -0.018756 -0.701528 0.826740
v -0.018756 -0.012609 0.181698
v -0.018756 -0.677790 0.855785
v -0.018756 -0.036348 0.152652
v -0.018756 -0.701528 0.826740
v -0.018756 -0.012609 0.181698
v -0.018756 -0.677790 0.855785
v 0.018756 -0.036348 0.152652
v 0.018756 -0.701528 0.826740
v 0.018756 -0.012609 0.181698
v 0.018756 -0.677790 0.855785
v 0.018756 -0.036348 -0.152652
v 0.018756 -0.701528 -0.826740
v 0.018756 -0.012609 -0.181698
v 0.018756 -0.677790 -0.855785
v -0.018756 -0.036348 -0.152652
v -0.018756 -0.701528 -0.826740
v -0.018756 -0.012609 -0.181698
v -0.018756 -0.677790 -0.855785
v -0.018756 -0.036348 -0.152652
v -0.018756 -0.701528 -0.826740
v -0.018756 -0.012609 -0.181698
v -0.018756 -0.677790 -0.855785
v 0.018756 -0.036348 -0.152652
v 0.018756 -0.701528 -0.826740
v 0.018756 -0.012609 -0.181698
v 0.018756 -0.677790 -0.855785
vt 0.215134 0.032815
vt 0.215134 0.392035
vt 0.199118 0.392035
vt 0.199118 0.032815
vt 0.117837 0.375384
vt 0.117837 0.016172
vt 0.133852 0.016172
vt 0.133852 0.375384
vt 0.134166 0.439167
vt 0.493391 0.439167
vt 0.493391 0.455182
vt 0.134166 0.455182
vt 0.133852 0.391399
vt 0.133852 0.750633
vt 0.117836 0.750633
vt 0.117837 0.391399
vt 0.117837 0.000157
vt 0.133852 0.000157
vt 0.101193 0.000157
vt 0.101193 0.903452
vt 0.085177 0.903452
vt 0.085179 0.000157
vt 0.019129 0.037749
vt 0.015247 0.815246
vt 0.000157 0.843919
vt 0.000161 0.000157
vt 0.068851 0.903495
vt 0.068847 0.000157
vt 0.084863 0.000157
vt 0.084863 0.903495
vt 0.052202 0.006358
vt 0.052202 0.850121
vt 0.033230 0.812527
vt 0.037116 0.035028
vt 0.134166 0.000158
vt 0.618000 0.000157
vt 0.618000 0.016173
vt 0.134166 0.016172
vt 0.052517 0.500054
vt 0.052516 0.016174
vt 0.068533 0.016174
vt 0.068532 0.500054
vt 0.134166 0.016486
vt 0.617992 0.016486
vt 0.617992 0.032502
vt 0.134166 0.032502
vt 0.068532 0.516069
vt 0.068533 0.999843
vt 0.052519 0.999843
vt 0.052517 0.516069
vt 0.052516 0.000157
vt 0.068533 0.000157
vt 0.375000 0.000000
vt 0.625000 0.000000
vt 0.625000 0.250000
vt 0.375000 0.250000
vt 0.625000 0.500000
vt 0.375000 0.500000
vt 0.625000 0.750000
vt 0.375000 0.750000
vt 0.625000 1.000000
vt 0.375000 1.000000
vt 0.125000 0.500000
vt 0.125000 0.750000
vt 0.875000 0.500000
vt 0.875000 0.750000
vt 0.150090 0.438853
vt 0.134166 0.437145
vt 0.134167 0.032815
vt 0.150090 0.034523
vt 0.489187 0.903809
vt 0.489187 0.919824
vt 0.084861 0.919823
vt 0.084861 0.903809
vt 0.150404 0.034524
vt 0.166329 0.032815
vt 0.166329 0.437145
vt 0.150406 0.438853
vt 0.505202 0.919824
vt 0.505202 0.903809
vt 0.909529 0.903809
vt 0.909529 0.919824
vt 0.068847 0.919823
vt 0.068847 0.903809
vt 0.375000 0.000000
vt 0.375000 0.250000
vt 0.625000 0.250000
vt 0.625000 0.000000
vt 0.375000 0.500000
vt 0.625000 0.500000
vt 0.375000 0.750000
vt 0.625000 0.750000
vt 0.375000 1.000000
vt 0.625000 1.000000
vt 0.125000 0.500000
vt 0.125000 0.750000
vt 0.875000 0.750000
vt 0.875000 0.500000
vt 0.166643 0.438845
vt 0.166642 0.034524
vt 0.182566 0.032815
vt 0.182566 0.437137
vt 0.117522 0.420490
vt 0.117522 0.824808
vt 0.101507 0.824808
vt 0.101507 0.420490
vt 0.198804 0.034523
vt 0.198804 0.438847
vt 0.182880 0.437139
vt 0.182880 0.032815
vt 0.101507 0.404475
vt 0.101507 0.000157
vt 0.117522 0.000157
vt 0.117522 0.404475
vt 0.117522 0.840823
vt 0.101507 0.840823
vn -1.0000 0.0000 0.0000
vn 0.0000 0.8220 -0.5694
vn 1.0000 0.0000 0.0000
vn 0.0000 -0.8220 0.5694
vn 0.0000 -0.5695 -0.8220
vn 0.0000 0.5694 0.8220
vn 0.0000 0.0000 -1.0000
vn 0.0000 0.0000 1.0000
vn 0.0000 -1.0000 0.0000
vn 0.0000 1.0000 0.0000
vn 0.0000 -0.6328 -0.7743
vn 0.0000 0.6328 0.7743
vn 0.0000 -0.7743 0.6328
vn 0.0000 0.7743 -0.6328
vn 0.0000 -0.7118 -0.7024
vn 0.0000 0.7118 0.7024
vn 0.0000 -0.7118 0.7024
vn 0.0000 0.7118 -0.7024
vn 0.0000 -0.7743 -0.6328
vn 0.0000 0.7743 0.6328
usemtl Metal03.002
s off
f 1/1/1 2/2/1 4/3/1 3/4/1
f 3/5/2 4/6/2 8/7/2 7/8/2
f 7/9/3 8/10/3 6/11/3 5/12/3
f 5/13/4 6/14/4 2/15/4 1/16/4
f 3/5/5 7/8/5 5/13/5 1/16/5
f 8/7/6 4/6/6 2/17/6 6/18/6
usemtl Metal03
f 9/19/1 10/20/1 12/21/1 11/22/1
f 11/23/7 12/24/7 16/25/7 15/26/7
f 15/27/3 16/28/3 14/29/3 13/30/3
f 13/31/8 14/32/8 10/33/8 9/34/8
f 11/23/9 15/26/9 13/31/9 9/34/9
f 16/25/10 12/24/10 10/33/10 14/32/10
usemtl Metal03.001
f 17/35/1 18/36/1 20/37/1 19/38/1
f 19/39/11 20/40/11 24/41/11 23/42/11
f 23/43/3 24/44/3 22/45/3 21/46/3
f 21/47/12 22/48/12 18/49/12 17/50/12
f 19/39/13 23/42/13 21/47/13 17/50/13
f 24/41/14 20/40/14 18/51/14 22/52/14
usemtl Metal03.003
f 25/53/1 26/54/1 28/55/1 27/56/1
f 27/56/15 28/55/15 32/57/15 31/58/15
f 31/58/3 32/57/3 30/59/3 29/60/3
f 29/60/16 30/59/16 26/61/16 25/62/16
f 27/63/13 31/58/13 29/60/13 25/64/13
f 32/57/14 28/65/14 26/66/14 30/59/14
f 33/67/3 35/68/3 36/69/3 34/70/3
f 35/71/15 39/72/15 40/73/15 36/74/15
f 39/75/1 37/76/1 38/77/1 40/78/1
f 37/79/16 33/80/16 34/81/16 38/82/16
f 35/71/13 33/80/13 37/79/13 39/72/13
f 40/73/14 38/83/14 34/84/14 36/74/14
f 41/85/1 43/86/1 44/87/1 42/88/1
f 43/86/17 47/89/17 48/90/17 44/87/17
f 47/89/3 45/91/3 46/92/3 48/90/3
f 45/91/18 41/93/18 42/94/18 46/92/18
f 43/95/19 41/96/19 45/91/19 47/89/19
f 48/90/20 46/92/20 42/97/20 44/98/20
f 49/99/3 50/100/3 52/101/3 51/102/3
f 51/103/17 52/104/17 56/105/17 55/106/17
f 55/107/1 56/108/1 54/109/1 53/110/1
f 53/111/18 54/112/18 50/113/18 49/114/18
f 51/103/19 55/106/19 53/111/19 49/114/19
f 56/105/20 52/104/20 50/115/20 54/116/20
